<svg width="289" height="59" viewBox="0 0 289 59" fill="none" xmlns="http://www.w3.org/2000/svg">
<path d="M23.4718 5.03903C16.9132 6.02426 12.1196 8.36734 7.75299 12.7183C3.92546 16.5676 1.60307 20.807 0.432401 26.1247C-0.0509117 28.3004 -0.143461 33.4508 0.227819 35.8312C0.599639 38.0812 1.69562 41.5026 2.68064 43.4362C6.32254 50.7065 13.0673 55.8943 21.1494 57.6611C23.3976 58.1632 29.4734 58.1632 31.74 57.68C37.1658 56.5264 41.4577 54.1838 45.3042 50.316C49.2059 46.3925 51.4731 42.1347 52.6805 36.5375C53.2006 34.0644 53.1449 28.7093 52.5874 26.1431C51.38 20.7696 49.057 16.4739 45.3036 12.7367C41.6433 9.05522 37.5181 6.78633 32.2975 5.54058C30.7182 5.16848 29.7521 5.07586 27.1878 5.02007C25.4602 4.98324 23.7878 5.00166 23.4718 5.03903ZM30.7924 9.6873C40.51 11.6772 47.6266 19.5796 48.6668 29.5093C49.3915 36.4265 46.4002 43.8083 41.0301 48.4008C30.0308 57.7537 13.3644 54.5369 6.78691 41.7816C-0.366445 27.9473 8.44035 11.3236 23.9367 9.4089C25.7016 9.18521 28.9906 9.31574 30.7924 9.6873Z" fill="black"/>
<path d="M18.2697 20.2674C14.0893 23.0752 10.5032 25.5483 10.3359 25.7715C10.0388 26.1246 10.0015 26.7015 10.0015 31.8334V37.4858L10.4474 37.8948C11.2647 38.6568 26.1478 48.066 26.5196 48.066C26.8541 48.066 42.5544 37.6716 42.7774 37.3001C42.8332 37.2069 42.8889 34.5665 42.8889 31.4245C42.9073 26.1252 42.8889 25.6604 42.5728 25.3625C42.3872 25.1768 38.8568 22.8153 34.7132 20.1006C28.4144 15.9729 27.0765 15.1545 26.538 15.1729C25.999 15.1729 24.5496 16.0655 18.2697 20.2674ZM25.2375 22.4616V25.6973L22.2645 27.6683C20.6295 28.7656 19.2174 29.6766 19.1059 29.695C18.9203 29.7508 14.0893 26.6641 14.1077 26.4967C14.1077 26.3851 24.903 19.2638 25.107 19.2638C25.1817 19.2448 25.2375 20.6953 25.2375 22.4616ZM33.5241 22.8153C36.5339 24.7863 38.9683 26.4409 38.9683 26.4967C38.9683 26.5525 37.8907 27.3146 36.5528 28.2072L34.1373 29.8434L30.9972 27.7793L27.8386 25.7151V22.48C27.8386 20.6948 27.8943 19.2448 27.9685 19.2448C28.0242 19.2448 30.5328 20.8627 33.5241 22.8153ZM29.1018 29.9182C30.3466 30.7176 31.3684 31.4429 31.3684 31.5171C31.3684 31.6102 30.2725 32.3913 28.9346 33.2833L26.4823 34.8828L23.9926 33.2281L21.4841 31.5545L23.9553 29.8808C25.33 28.9698 26.538 28.263 26.6495 28.3372C26.761 28.3935 27.857 29.0998 29.1018 29.9182ZM15.1669 30.6803C15.7985 31.0892 16.3192 31.4797 16.3192 31.5355C16.3192 31.6471 13.2347 33.7481 13.0675 33.7481C13.0118 33.7481 12.9744 32.7439 12.9744 31.4981V29.2482L13.5135 29.6013C13.7917 29.7877 14.5537 30.2713 15.1669 30.6803ZM40.2873 31.5171C40.2873 32.986 40.2126 33.7486 40.0827 33.7486C39.8597 33.7486 36.7569 31.666 36.7569 31.5171C36.7569 31.3871 39.9712 29.2856 40.1568 29.2856C40.2315 29.2861 40.2873 30.2898 40.2873 31.5171ZM22.153 35.2359L25.2375 37.2817V40.5542C25.2375 43.3062 25.2001 43.8083 24.9771 43.7341C24.8283 43.6783 22.3203 42.0236 19.3847 40.071L14.052 36.519L15.3341 35.6264C17.8611 33.8602 18.8272 33.2091 18.9571 33.2091C19.0312 33.1907 20.4622 34.1017 22.153 35.2359ZM36.6827 34.9754C37.9649 35.868 38.9494 36.649 38.8563 36.7232C38.5407 37.0027 28.4518 43.6036 28.1357 43.7151C27.857 43.8267 27.8386 43.5662 27.8759 40.61L27.9317 37.3748L30.9046 35.3664C32.5396 34.2691 33.9701 33.377 34.1189 33.377C34.2488 33.3765 35.4195 34.1017 36.6827 34.9754Z" fill="black"/>
<path d="M72.2969 46C67.6094 46 65.2656 43.6562 65.2656 38.9688V27.25C65.2656 22.5625 67.6094 20.2188 72.2969 20.2188H77.6875C82.375 20.2188 84.7188 22.5625 84.7188 27.25V28.4922L80.2656 30.6016H80.0312V27.25C80.0312 25.375 79.25 24.4375 77.6875 24.4375H72.2969C70.7344 24.4375 69.9531 25.375 69.9531 27.25V38.9688C69.9531 40.8438 70.7344 41.7812 72.2969 41.7812H77.6875C79.25 41.7812 80.0312 40.8438 80.0312 38.9688V37.7266L84.4844 35.6172H84.7188V38.9688C84.7188 43.6562 82.375 46 77.6875 46H72.2969ZM98.7812 41.7812H104.172C105.734 41.7812 106.516 40.8438 106.516 38.9688V27.25C106.516 25.375 105.734 24.4375 104.172 24.4375H98.7812C97.2188 24.4375 96.4375 25.375 96.4375 27.25V38.9688C96.4375 40.8438 97.2188 41.7812 98.7812 41.7812ZM98.7812 46C94.0938 46 91.75 43.6562 91.75 38.9688V27.25C91.75 22.5625 94.0938 20.2188 98.7812 20.2188H104.172C108.859 20.2188 111.203 22.5625 111.203 27.25V38.9688C111.203 43.6562 108.859 46 104.172 46H98.7812ZM125.266 46C120.578 46 118.234 43.6562 118.234 38.9688V27.25C118.234 22.5625 120.578 20.2188 125.266 20.2188H130.656C131.719 20.2188 132.5 20.4609 133 20.9453V11.7812L137.453 9.67188H137.688V38.9688C137.688 43.6562 135.344 46 130.656 46H125.266ZM125.266 41.7812H130.656C132.219 41.7812 133 40.8438 133 38.9688V27.25C133 25.375 132.219 24.4375 130.656 24.4375H125.266C123.703 24.4375 122.922 25.375 122.922 27.25V38.9688C122.922 40.8438 123.703 41.7812 125.266 41.7812ZM152.922 46C148.234 46 145.891 43.6562 145.891 38.9688V27.25C145.891 22.5625 148.234 20.2188 152.922 20.2188H158.312C163 20.2188 165.344 22.5625 165.344 27.25V28.4922L150.648 39.8594C150.867 41.1406 151.625 41.7812 152.922 41.7812H158.312C159.875 41.7812 160.656 40.8438 160.656 38.9688V37.7266L165.109 35.6172H165.344V38.9688C165.344 43.6562 163 46 158.312 46H152.922ZM150.578 34.9609L160.633 26.8516C160.539 25.2422 159.766 24.4375 158.312 24.4375H152.922C151.359 24.4375 150.578 25.375 150.578 27.25V34.9609ZM173.547 46.9375V11.7812L176.031 10.6094H188.547C194.016 10.6094 196.75 13.3438 196.75 18.8125V25.8438C196.75 31.3125 194.016 34.0469 188.547 34.0469H178.234V44.8281L173.781 46.9375H173.547ZM178.234 14.8281V29.8281H188.547C190.891 29.8281 192.062 28.5 192.062 25.8438V18.8125C192.062 16.1562 190.891 14.8281 188.547 14.8281H178.234ZM209.641 46C204.953 46 202.609 43.6562 202.609 38.9688V27.25C202.609 22.5625 204.953 20.2188 209.641 20.2188H215.031C219.719 20.2188 222.062 22.5625 222.062 27.25V28.4922L207.367 39.8594C207.586 41.1406 208.344 41.7812 209.641 41.7812H215.031C216.594 41.7812 217.375 40.8438 217.375 38.9688V37.7266L221.828 35.6172H222.062V38.9688C222.062 43.6562 219.719 46 215.031 46H209.641ZM207.297 34.9609L217.352 26.8516C217.258 25.2422 216.484 24.4375 215.031 24.4375H209.641C208.078 24.4375 207.297 25.375 207.297 27.25V34.9609ZM229.094 46.9375V27.25C229.094 22.5625 231.438 20.2188 236.125 20.2188H241.516C246.203 20.2188 248.547 22.5625 248.547 27.25V44.8281L244.094 46.9375H243.859V27.25C243.859 25.375 243.078 24.4375 241.516 24.4375H236.125C234.562 24.4375 233.781 25.375 233.781 27.25V44.8281L229.328 46.9375H229.094Z" fill="black"/>
</svg>
