<svg width="289" height="59" viewBox="0 0 289 59" fill="none" xmlns="http://www.w3.org/2000/svg">
<path d="M23.4718 5.03903C16.9132 6.02426 12.1196 8.36734 7.75299 12.7183C3.92546 16.5676 1.60307 20.807 0.432401 26.1247C-0.0509117 28.3004 -0.143461 33.4508 0.227819 35.8312C0.599639 38.0812 1.69562 41.5026 2.68064 43.4362C6.32254 50.7065 13.0673 55.8943 21.1494 57.6611C23.3976 58.1632 29.4734 58.1632 31.74 57.68C37.1658 56.5264 41.4577 54.1838 45.3042 50.316C49.2059 46.3925 51.4731 42.1347 52.6805 36.5375C53.2006 34.0644 53.1449 28.7093 52.5874 26.1431C51.38 20.7696 49.057 16.4739 45.3036 12.7367C41.6433 9.05522 37.5181 6.78633 32.2975 5.54058C30.7182 5.16848 29.7521 5.07586 27.1878 5.02007C25.4602 4.98324 23.7878 5.00166 23.4718 5.03903ZM30.7924 9.6873C40.51 11.6772 47.6266 19.5796 48.6668 29.5093C49.3915 36.4265 46.4002 43.8083 41.0301 48.4008C30.0308 57.7537 13.3644 54.5369 6.78691 41.7816C-0.366445 27.9473 8.44035 11.3236 23.9367 9.4089C25.7016 9.18521 28.9906 9.31574 30.7924 9.6873Z" fill="white"/>
<path d="M18.2696 20.2675C14.0891 23.0753 10.503 25.5484 10.3358 25.7715C10.0386 26.1247 10.0013 26.7015 10.0013 31.8335V37.4859L10.4473 37.8948C11.2645 38.6569 26.1476 48.0661 26.5194 48.0661C26.8539 48.0661 42.5543 37.6717 42.7772 37.3001C42.833 37.207 42.8887 34.5665 42.8887 31.4245C42.9071 26.1252 42.8887 25.6605 42.5727 25.3626C42.387 25.1768 38.8566 22.8153 34.713 20.1007C28.4143 15.9729 27.0763 15.1545 26.5378 15.1729C25.9988 15.1729 24.5494 16.0655 18.2696 20.2675ZM25.2373 22.4616V25.6973L22.2643 27.6683C20.6293 28.7657 19.2172 29.6767 19.1057 29.6951C18.9201 29.7509 14.0891 26.6641 14.1075 26.4968C14.1075 26.3852 24.9028 19.2639 25.1068 19.2639C25.1815 19.2449 25.2373 20.6954 25.2373 22.4616ZM33.5239 22.8153C36.5337 24.7863 38.9681 26.441 38.9681 26.4968C38.9681 26.5526 37.8905 27.3146 36.5526 28.2072L34.1371 29.8435L30.997 27.7794L27.8384 25.7152V22.4801C27.8384 20.6948 27.8941 19.2449 27.9683 19.2449C28.024 19.2449 30.5326 20.8627 33.5239 22.8153ZM29.1016 29.9183C30.3464 30.7177 31.3682 31.4429 31.3682 31.5171C31.3682 31.6103 30.2723 32.3913 28.9344 33.2834L26.4821 34.8828L23.9925 33.2282L21.4839 31.5545L23.9551 29.8809C25.3298 28.9699 26.5378 28.263 26.6493 28.3372C26.7608 28.3936 27.8568 29.0999 29.1016 29.9183ZM15.1667 30.6803C15.7983 31.0893 16.319 31.4798 16.319 31.5356C16.319 31.6471 13.2346 33.7481 13.0673 33.7481C13.0116 33.7481 12.9742 32.7439 12.9742 31.4982V29.2483L13.5133 29.6014C13.7915 29.7877 14.5535 30.2714 15.1667 30.6803ZM40.2871 31.5171C40.2871 32.986 40.2124 33.7487 40.0825 33.7487C39.8595 33.7487 36.7567 31.6661 36.7567 31.5171C36.7567 31.3872 39.971 29.2856 40.1566 29.2856C40.2313 29.2862 40.2871 30.2898 40.2871 31.5171ZM22.1528 35.236L25.2373 37.2817V40.5542C25.2373 43.3063 25.1999 43.8084 24.9769 43.7341C24.8281 43.6784 22.3201 42.0237 19.3845 40.0711L14.0518 36.5191L15.334 35.6265C17.8609 33.8602 18.827 33.2092 18.9569 33.2092C19.0311 33.1908 20.4621 34.1018 22.1528 35.236ZM36.6825 34.9755C37.9647 35.8681 38.9492 36.6491 38.8561 36.7233C38.5405 37.0028 28.4516 43.6036 28.1355 43.7152C27.8568 43.8268 27.8384 43.5662 27.8757 40.61L27.9315 37.3749L30.9044 35.3665C32.5395 34.2692 33.9699 33.3771 34.1187 33.3771C34.2486 33.3766 35.4193 34.1018 36.6825 34.9755Z" fill="white"/>
<path d="M72.2969 46C67.6094 46 65.2656 43.6562 65.2656 38.9688V27.25C65.2656 22.5625 67.6094 20.2188 72.2969 20.2188H77.6875C82.375 20.2188 84.7188 22.5625 84.7188 27.25V28.4922L80.2656 30.6016H80.0312V27.25C80.0312 25.375 79.25 24.4375 77.6875 24.4375H72.2969C70.7344 24.4375 69.9531 25.375 69.9531 27.25V38.9688C69.9531 40.8438 70.7344 41.7812 72.2969 41.7812H77.6875C79.25 41.7812 80.0312 40.8438 80.0312 38.9688V37.7266L84.4844 35.6172H84.7188V38.9688C84.7188 43.6562 82.375 46 77.6875 46H72.2969ZM98.7812 41.7812H104.172C105.734 41.7812 106.516 40.8438 106.516 38.9688V27.25C106.516 25.375 105.734 24.4375 104.172 24.4375H98.7812C97.2188 24.4375 96.4375 25.375 96.4375 27.25V38.9688C96.4375 40.8438 97.2188 41.7812 98.7812 41.7812ZM98.7812 46C94.0938 46 91.75 43.6562 91.75 38.9688V27.25C91.75 22.5625 94.0938 20.2188 98.7812 20.2188H104.172C108.859 20.2188 111.203 22.5625 111.203 27.25V38.9688C111.203 43.6562 108.859 46 104.172 46H98.7812ZM125.266 46C120.578 46 118.234 43.6562 118.234 38.9688V27.25C118.234 22.5625 120.578 20.2188 125.266 20.2188H130.656C131.719 20.2188 132.5 20.4609 133 20.9453V11.7812L137.453 9.67188H137.688V38.9688C137.688 43.6562 135.344 46 130.656 46H125.266ZM125.266 41.7812H130.656C132.219 41.7812 133 40.8438 133 38.9688V27.25C133 25.375 132.219 24.4375 130.656 24.4375H125.266C123.703 24.4375 122.922 25.375 122.922 27.25V38.9688C122.922 40.8438 123.703 41.7812 125.266 41.7812ZM152.922 46C148.234 46 145.891 43.6562 145.891 38.9688V27.25C145.891 22.5625 148.234 20.2188 152.922 20.2188H158.312C163 20.2188 165.344 22.5625 165.344 27.25V28.4922L150.648 39.8594C150.867 41.1406 151.625 41.7812 152.922 41.7812H158.312C159.875 41.7812 160.656 40.8438 160.656 38.9688V37.7266L165.109 35.6172H165.344V38.9688C165.344 43.6562 163 46 158.312 46H152.922ZM150.578 34.9609L160.633 26.8516C160.539 25.2422 159.766 24.4375 158.312 24.4375H152.922C151.359 24.4375 150.578 25.375 150.578 27.25V34.9609ZM173.547 46.9375V11.7812L176.031 10.6094H188.547C194.016 10.6094 196.75 13.3438 196.75 18.8125V25.8438C196.75 31.3125 194.016 34.0469 188.547 34.0469H178.234V44.8281L173.781 46.9375H173.547ZM178.234 14.8281V29.8281H188.547C190.891 29.8281 192.062 28.5 192.062 25.8438V18.8125C192.062 16.1562 190.891 14.8281 188.547 14.8281H178.234ZM209.641 46C204.953 46 202.609 43.6562 202.609 38.9688V27.25C202.609 22.5625 204.953 20.2188 209.641 20.2188H215.031C219.719 20.2188 222.062 22.5625 222.062 27.25V28.4922L207.367 39.8594C207.586 41.1406 208.344 41.7812 209.641 41.7812H215.031C216.594 41.7812 217.375 40.8438 217.375 38.9688V37.7266L221.828 35.6172H222.062V38.9688C222.062 43.6562 219.719 46 215.031 46H209.641ZM207.297 34.9609L217.352 26.8516C217.258 25.2422 216.484 24.4375 215.031 24.4375H209.641C208.078 24.4375 207.297 25.375 207.297 27.25V34.9609ZM229.094 46.9375V27.25C229.094 22.5625 231.438 20.2188 236.125 20.2188H241.516C246.203 20.2188 248.547 22.5625 248.547 27.25V44.8281L244.094 46.9375H243.859V27.25C243.859 25.375 243.078 24.4375 241.516 24.4375H236.125C234.562 24.4375 233.781 25.375 233.781 27.25V44.8281L229.328 46.9375H229.094Z" fill="white"/>
</svg>
