<svg width="479" height="69" viewBox="0 0 479 69" fill="none" xmlns="http://www.w3.org/2000/svg">
<path d="M16.6177 68.8956C14.8998 68.4812 12.4138 66.3019 9.65714 62.7937C4.06135 55.6722 1.02291 47.6846 0.128136 37.7434C-0.0440776 35.8301 -0.0423481 30.9892 0.131191 29.2178C0.949385 20.8655 3.84182 13.6727 9.14912 6.79223C10.7744 4.68525 13.4679 1.92504 14.758 1.04457C16.5833 -0.201222 17.7323 -0.301955 18.8349 0.687141C19.2846 1.09054 19.388 1.27821 19.4456 1.7953C19.5541 2.76891 19.0602 3.52969 16.7634 5.92673C13.5538 9.27649 12.0731 11.1412 10.4329 13.8988C6.70844 20.161 5.11466 26.7466 5.34313 34.9303C5.46484 39.2903 5.92655 42.504 6.94475 46.0785C7.86181 49.2979 8.9625 51.8936 10.6108 54.7242C12.2659 57.5662 13.6566 59.3643 16.4377 62.2578C18.8775 64.7963 19.4836 65.678 19.4836 66.6891C19.4836 67.6949 18.781 68.6045 17.7891 68.8829C17.2412 69.0366 17.204 69.037 16.6177 68.8956L16.6177 68.8956ZM81.0223 68.9337C80.503 68.8223 79.5745 67.8132 79.4698 67.2466C79.3011 66.3335 79.8387 65.5202 82.345 62.8972C83.5783 61.6064 85.0958 59.9097 85.7172 59.1268C90.2639 53.3981 92.79 47.0239 93.4639 39.5788C93.6717 37.2836 93.5643 31.3701 93.2746 29.1526C92.6677 24.5077 91.5476 20.7077 89.6075 16.712C87.751 12.8885 85.8304 10.1767 82.5866 6.79904C80.4084 4.53086 79.7662 3.70261 79.5473 2.87877C79.3326 2.07122 79.4869 1.47154 80.0863 0.78345C80.9086 -0.160386 81.8478 -0.244577 83.3176 0.493799C85.0968 1.38756 87.4024 3.72157 90.0788 7.33812C95.4635 14.6143 98.2407 22.619 98.9082 32.787C99.4753 41.4262 97.4012 50.1713 93.0674 57.4136C90.0758 62.4128 85.5118 67.5354 83.0815 68.6217C82.4463 68.9056 81.5349 69.0437 81.0223 68.9337V68.9337ZM27.2741 63.6657C25.8193 63.2201 24.976 61.7509 25.3268 60.2734C25.5437 59.3596 26.4515 58.4202 27.3346 58.1955C28.2243 57.9691 74.2455 57.9691 75.1351 58.1955C76.0455 58.4271 76.9398 59.3695 77.1387 60.3068C77.3994 61.5351 76.8531 62.7923 75.7917 63.4066L75.2306 63.7314L51.4337 63.7541C38.3454 63.7667 27.4736 63.7268 27.2741 63.6657V63.6657ZM45.4016 52.3619C40.9822 50.7376 37.3052 47.5722 35.423 43.7716C34.3766 41.6586 33.7692 39.0995 33.7697 36.8057C33.7704 33.7046 34.9704 30.7496 38.6266 24.8465C41.3499 20.4497 41.8138 19.6485 42.6146 17.9598C43.6801 15.7126 44.0315 14.3779 44.0538 12.4923C44.0751 10.6902 43.8079 9.62114 42.9864 8.22271C42.4034 7.23004 41.0916 5.73581 40.5589 5.45746C39.6906 5.00378 39.5107 4.38755 40.1272 3.97935C41.1023 3.33377 43.7665 3.74319 46.2142 4.91478C48.9837 6.24043 51.025 8.14392 52.3542 10.6404C53.3787 12.5646 53.7918 14.039 54.4867 18.2525C55.2578 22.9281 56.0222 24.4115 57.5679 24.2321C58.387 24.137 58.8981 23.8229 59.2431 23.2028C59.7925 22.215 59.557 20.8629 58.4458 18.6255C57.5379 16.7975 57.5941 16.2451 58.659 16.5296C59.2105 16.677 61.0003 18.1542 62.2394 19.4847C65.3397 22.8137 66.8827 25.8383 67.6247 30.0408C68.0139 32.2451 68.0463 35.9002 67.6936 37.8104C67.2486 40.2203 66.3467 42.495 65.065 44.4402C63.6358 46.6093 60.6543 49.3536 58.4867 50.4953C57.5078 51.0108 57.1681 51.0421 56.6883 50.6607C56.0915 50.1863 56.2175 49.8566 57.5368 48.4406C59.5189 46.313 60.5309 44.8006 61.1181 43.0883C62.0239 40.4465 61.573 36.7634 60.0563 34.4158C59.4282 33.4435 58.5074 32.586 58.0914 32.586C57.8637 32.586 57.9015 32.8896 58.3237 34.4524C58.4716 35 58.5927 35.6692 58.5927 35.9396C58.5927 37.3696 56.5951 38.4062 54.8355 37.8894C53.4056 37.4693 52.7752 36.1589 52.9646 34C53.0231 33.3328 53.0755 32.1205 53.081 31.3059C53.0906 29.8696 53.0769 29.7969 52.6269 28.9002C51.7498 27.1525 49.7213 25.3523 48.6291 25.3523C48.1581 25.3523 48.1194 25.381 48.1194 25.7308C48.1194 25.9657 48.2501 26.2326 48.4637 26.4341C49.5952 27.5012 49.8081 29.6878 48.9686 31.6183C48.4497 32.8114 47.8646 33.4872 45.8664 35.2011C43.2372 37.4562 42.39 38.53 41.8646 40.2732C41.6216 41.0795 41.5965 41.4077 41.6649 42.8854C41.7797 45.3662 42.2801 47.0106 43.4496 48.7508C44.3475 50.0868 45.3989 50.9344 46.8268 51.4735C47.5135 51.7328 47.5891 51.7998 47.5891 52.1489C47.5891 52.5535 47.2846 52.8195 46.8355 52.8071C46.7031 52.8034 46.0579 52.603 45.4016 52.3619V52.3619Z" fill="black"/>
<path d="M117.688 51.9375V31.8281H114.172V31.5938L116.07 27.5625H117.688V22.6406C117.688 17.9531 120.031 15.6094 124.719 15.6094H130.578V15.8438L128.703 19.8281H124.719C123.156 19.8281 122.375 20.7656 122.375 22.6406V27.5625H130.133V27.7969L128.234 31.8281H122.375V49.8281L117.922 51.9375H117.688ZM135.266 51.9375V32.25C135.266 27.5625 137.609 25.2188 142.297 25.2188H148.156V25.4531L146.281 29.4375H142.297C140.734 29.4375 139.953 30.375 139.953 32.25V49.8281L135.5 51.9375H135.266ZM159.172 51C154.484 51 152.141 48.6562 152.141 43.9688V32.25C152.141 27.5625 154.484 25.2188 159.172 25.2188H164.562C169.25 25.2188 171.594 27.5625 171.594 32.25V33.4922L156.898 44.8594C157.117 46.1406 157.875 46.7812 159.172 46.7812H164.562C166.125 46.7812 166.906 45.8438 166.906 43.9688V42.7266L171.359 40.6172H171.594V43.9688C171.594 48.6562 169.25 51 164.562 51H159.172ZM156.828 39.9609L166.883 31.8516C166.789 30.2422 166.016 29.4375 164.562 29.4375H159.172C157.609 29.4375 156.828 30.375 156.828 32.25V39.9609ZM185.656 51C180.969 51 178.625 48.6562 178.625 43.9688V32.25C178.625 27.5625 180.969 25.2188 185.656 25.2188H191.047C195.734 25.2188 198.078 27.5625 198.078 32.25V33.4922L183.383 44.8594C183.602 46.1406 184.359 46.7812 185.656 46.7812H191.047C192.609 46.7812 193.391 45.8438 193.391 43.9688V42.7266L197.844 40.6172H198.078V43.9688C198.078 48.6562 195.734 51 191.047 51H185.656ZM183.312 39.9609L193.367 31.8516C193.273 30.2422 192.5 29.4375 191.047 29.4375H185.656C184.094 29.4375 183.312 30.375 183.312 32.25V39.9609ZM212.141 51C207.453 51 205.109 48.6562 205.109 43.9688V32.25C205.109 27.5625 207.453 25.2188 212.141 25.2188H217.531C222.219 25.2188 224.562 27.5625 224.562 32.25V33.4922L220.109 35.6016H219.875V32.25C219.875 30.375 219.094 29.4375 217.531 29.4375H212.141C210.578 29.4375 209.797 30.375 209.797 32.25V43.9688C209.797 45.8438 210.578 46.7812 212.141 46.7812H217.531C219.094 46.7812 219.875 45.8438 219.875 43.9688V42.7266L224.328 40.6172H224.562V43.9688C224.562 48.6562 222.219 51 217.531 51H212.141ZM238.625 46.7812H244.016C245.578 46.7812 246.359 45.8438 246.359 43.9688V32.25C246.359 30.375 245.578 29.4375 244.016 29.4375H238.625C237.062 29.4375 236.281 30.375 236.281 32.25V43.9688C236.281 45.8438 237.062 46.7812 238.625 46.7812ZM238.625 51C233.938 51 231.594 48.6562 231.594 43.9688V32.25C231.594 27.5625 233.938 25.2188 238.625 25.2188H244.016C248.703 25.2188 251.047 27.5625 251.047 32.25V43.9688C251.047 48.6562 248.703 51 244.016 51H238.625ZM265.109 51C260.422 51 258.078 48.6562 258.078 43.9688V32.25C258.078 27.5625 260.422 25.2188 265.109 25.2188H270.5C271.562 25.2188 272.344 25.4609 272.844 25.9453V16.7812L277.297 14.6719H277.531V43.9688C277.531 48.6562 275.188 51 270.5 51H265.109ZM265.109 46.7812H270.5C272.062 46.7812 272.844 45.8438 272.844 43.9688V32.25C272.844 30.375 272.062 29.4375 270.5 29.4375H265.109C263.547 29.4375 262.766 30.375 262.766 32.25V43.9688C262.766 45.8438 263.547 46.7812 265.109 46.7812ZM292.766 51C288.078 51 285.734 48.6562 285.734 43.9688V32.25C285.734 27.5625 288.078 25.2188 292.766 25.2188H298.156C302.844 25.2188 305.188 27.5625 305.188 32.25V33.4922L290.492 44.8594C290.711 46.1406 291.469 46.7812 292.766 46.7812H298.156C299.719 46.7812 300.5 45.8438 300.5 43.9688V42.7266L304.953 40.6172H305.188V43.9688C305.188 48.6562 302.844 51 298.156 51H292.766ZM290.422 39.9609L300.477 31.8516C300.383 30.2422 299.609 29.4375 298.156 29.4375H292.766C291.203 29.4375 290.422 30.375 290.422 32.25V39.9609ZM319.25 51C314.562 51 312.219 48.6562 312.219 43.9688V32.25C312.219 27.5625 314.562 25.2188 319.25 25.2188H324.641C329.328 25.2188 331.672 27.5625 331.672 32.25V33.4922L327.219 35.6016H326.984V32.25C326.984 30.375 326.203 29.4375 324.641 29.4375H319.25C317.688 29.4375 316.906 30.375 316.906 32.25V43.9688C316.906 45.8438 317.688 46.7812 319.25 46.7812H324.641C326.203 46.7812 326.984 45.8438 326.984 43.9688V42.7266L331.438 40.6172H331.672V43.9688C331.672 48.6562 329.328 51 324.641 51H319.25ZM344.562 46.7812H349.484C351.047 46.7812 351.828 45.8438 351.828 43.9688V40.7578C351.828 38.8828 351.047 37.9453 349.484 37.9453H344.562C343 37.9453 342.219 38.8828 342.219 40.7578V43.9688C342.219 45.8438 343 46.7812 344.562 46.7812ZM344.562 51C339.875 51 337.531 48.6562 337.531 43.9688V40.7578C337.531 36.0703 339.875 33.7266 344.562 33.7266H349.484C350.297 33.7266 351.078 33.9609 351.828 34.4297V32.25C351.828 30.375 351.047 29.4375 349.484 29.4375H341.094V29.2031L342.969 25.2188H349.484C354.172 25.2188 356.516 27.5625 356.516 32.25V49.8281L352.062 51.9375H351.828V50.2969C351.234 50.7656 350.453 51 349.484 51H344.562ZM363.547 51.9375V32.25C363.547 27.5625 365.891 25.2188 370.578 25.2188H375.969C378.125 25.2188 379.688 25.7969 380.656 26.9531C381.688 25.7969 383.25 25.2188 385.344 25.2188H390.734C395.422 25.2188 397.766 27.5625 397.766 32.25V49.8281L393.312 51.9375H393.078V32.25C393.078 30.375 392.297 29.4375 390.734 29.4375H385.344C383.781 29.4375 383 30.375 383 32.25V49.8281L378.547 51.9375H378.312V32.25C378.312 30.375 377.531 29.4375 375.969 29.4375H370.578C369.016 29.4375 368.234 30.375 368.234 32.25V49.8281L363.781 51.9375H363.547ZM413 51C411.938 51 411.156 50.7578 410.656 50.2734V59.4375L406.203 61.5469H405.969V32.25C405.969 27.5625 408.312 25.2188 413 25.2188H418.391C423.078 25.2188 425.422 27.5625 425.422 32.25V43.9688C425.422 48.6562 423.078 51 418.391 51H413ZM413 46.7812H418.391C419.953 46.7812 420.734 45.8438 420.734 43.9688V32.25C420.734 30.375 419.953 29.4375 418.391 29.4375H413C411.438 29.4375 410.656 30.375 410.656 32.25V43.9688C410.656 45.8438 411.438 46.7812 413 46.7812Z" fill="black"/>
</svg>
