<svg width="230" height="58" viewBox="0 0 230 58" fill="none" xmlns="http://www.w3.org/2000/svg">
<path d="M25.48 0C11.4088 0 0 11.7052 0 26.13C0 37.674 7.3008 47.4604 17.4252 50.9184C17.5864 50.9548 17.7216 50.9652 17.8568 50.9652C18.8032 50.9652 19.1672 50.2736 19.1672 49.6704C19.1672 49.0464 19.1464 47.4084 19.1308 45.2244C18.174 45.4428 17.3212 45.5312 16.562 45.5312C11.6584 45.5312 10.5456 41.7196 10.5456 41.7196C9.386 38.7036 7.7116 37.8976 7.7116 37.8976C5.4912 36.3376 7.7012 36.296 7.8728 36.296C7.8832 36.296 7.8832 36.296 7.8832 36.296C10.4416 36.5248 11.7832 39.0052 11.7832 39.0052C13.0572 41.236 14.7628 41.86 16.2864 41.86C17.4824 41.86 18.564 41.4752 19.1984 41.1788C19.4272 39.494 20.0876 38.3448 20.8156 37.6844C15.1632 37.024 9.2144 34.7828 9.2144 24.7728C9.2144 21.918 10.2024 19.5832 11.83 17.7632C11.57 17.1028 10.6912 14.4404 12.0796 10.8472C12.0796 10.8472 12.2616 10.79 12.6464 10.79C13.5668 10.79 15.652 11.1436 19.084 13.5304C21.1224 12.948 23.2908 12.6672 25.4644 12.6568C27.6276 12.6672 29.8116 12.9532 31.8448 13.5304C35.282 11.1436 37.362 10.79 38.2824 10.79C38.6672 10.79 38.8492 10.8472 38.8492 10.8472C40.2376 14.4404 39.3588 17.1028 39.0988 17.7632C40.7264 19.5936 41.7144 21.9284 41.7144 24.7728C41.7144 34.8036 35.7552 37.0136 30.0768 37.6584C30.9868 38.4644 31.8084 40.0608 31.8084 42.4944C31.8084 45.9888 31.772 48.8072 31.772 49.66C31.772 50.2736 32.1256 50.9704 33.0668 50.9704C33.202 50.9704 33.3632 50.96 33.5244 50.9236C43.6696 47.4552 50.96 37.6636 50.96 26.13C50.96 11.7052 39.5512 0 25.48 0ZM16.562 47.3304C16.8116 47.3304 17.0612 47.32 17.3264 47.3096C17.3264 47.6268 17.3264 47.9336 17.3368 48.2092C17.3368 48.4848 17.3368 48.7344 17.3472 48.9476C15.574 48.2872 13.8996 47.4136 12.3292 46.332C13.4472 46.9352 14.846 47.3304 16.562 47.3304ZM17.8568 39.0416C17.7684 39.2912 17.6852 39.5512 17.6176 39.8268C17.2328 39.9412 16.7648 40.0296 16.2864 40.0296C15.0488 40.0296 14.1232 39.416 13.3744 38.1056C13.0988 37.5804 12.5996 36.8888 11.908 36.2492C13.8216 37.856 16.0368 38.6308 17.8568 39.0416ZM39.4732 45.7392C37.674 47.0912 35.7188 48.1624 33.67 48.9476C33.67 48.7292 33.67 48.4796 33.67 48.2092C33.67 46.8572 33.67 44.8188 33.67 42.4736C33.67 41.0644 33.4308 39.9152 33.1032 39.0052C37.336 38.0588 43.5708 35.1728 43.5708 24.7416C43.5708 21.944 42.7648 19.4532 41.158 17.3368C41.5116 15.8704 41.782 13.286 40.5756 10.1712L40.2688 9.3652L39.4472 9.0896C39.2756 9.0324 38.9012 8.944 38.3084 8.944C36.998 8.944 34.7932 9.412 31.538 11.5388C29.6036 11.0604 27.5808 10.8108 25.4956 10.8108H25.48H25.4696C23.3896 10.8108 21.3512 11.0604 19.4272 11.5388C16.172 9.412 13.9672 8.944 12.6568 8.944C12.064 8.944 11.6896 9.048 11.518 9.1052L10.6964 9.3808L10.3896 10.1868C9.1832 13.3172 9.4588 15.8964 9.8072 17.3524C8.2056 19.4792 7.3944 21.97 7.3944 24.7572C7.3944 30.3992 9.2144 33.8468 11.5596 35.9632C10.6496 35.204 9.4536 34.58 8.0184 34.476H7.9612H7.904H7.8676C6.3752 34.476 5.33 35.0896 5.0024 36.1504C4.4668 37.8352 6.1152 38.9948 6.6612 39.3796L6.7184 39.4472L6.89 39.5148C7.072 39.6292 8.0392 40.3104 8.814 42.302C9.0428 43.0092 9.5316 43.9504 10.3636 44.8292C8.8712 43.5552 7.54 42.0992 6.396 40.4976C3.4008 36.3116 1.82 31.3404 1.82 26.13C1.82 22.8436 2.444 19.656 3.6868 16.6556C4.8828 13.754 6.5884 11.1592 8.7724 8.9336C10.946 6.7028 13.4836 4.9504 16.2916 3.7336C19.1984 2.47 22.2976 1.82 25.48 1.82C28.6624 1.82 31.7616 2.4596 34.6736 3.718C37.4972 4.9348 40.0192 6.6872 42.1928 8.918C44.3664 11.1488 46.0824 13.754 47.2784 16.64C48.516 19.6456 49.14 22.828 49.14 26.1196C49.14 31.33 47.5696 36.3012 44.5796 40.4872C43.1444 42.4996 41.4284 44.2624 39.4732 45.7392Z" fill="white"/>
<path d="M71.6406 46C66.1719 46 63.4375 43.2656 63.4375 37.7969V18.8125C63.4375 13.3438 66.1719 10.6094 71.6406 10.6094H78.9062C84.375 10.6094 87.1094 13.3438 87.1094 18.8125V21.3906L82.6562 23.5H82.4219V18.8125C82.4219 16.1562 81.25 14.8281 78.9062 14.8281H71.6406C69.2969 14.8281 68.125 16.1562 68.125 18.8125V37.7969C68.125 40.4531 69.2969 41.7812 71.6406 41.7812H78.9062C81.25 41.7812 82.4219 40.4531 82.4219 37.7969V30.4375H74.2656V30.2031L76.1641 26.1719H87.1094V37.7969C87.1094 43.2656 84.375 46 78.9062 46H71.6406ZM96.8359 15.0391C96.2891 14.4766 96.0156 13.8047 96.0156 13.0234C96.0156 12.2266 96.2891 11.5469 96.8359 10.9844C97.3828 10.4219 98.0469 10.1406 98.8281 10.1406C99.6094 10.1406 100.273 10.4219 100.82 10.9844C101.367 11.5469 101.641 12.2266 101.641 13.0234C101.641 13.8047 101.367 14.4766 100.82 15.0391C100.273 15.6016 99.6094 15.8828 98.8281 15.8828C98.0469 15.8828 97.3828 15.6016 96.8359 15.0391ZM96.4844 46.9375V21.3906L100.938 19.2812H101.172V44.8281L96.7188 46.9375H96.4844ZM112.469 46.9375V24.4844H106.445V24.25L108.344 20.2188H112.469V11.7812L116.922 9.67188H117.156V20.2188H123.18V20.4531L121.281 24.4844H117.156V44.8281L112.703 46.9375H112.469ZM128.453 46.9375V11.7812L132.906 9.67188H133.141V26.1719H146.969V11.7812L151.422 9.67188H151.656V44.8281L147.203 46.9375H146.969V30.4375H133.141V44.8281L128.688 46.9375H128.453ZM166.891 46C162.203 46 159.859 43.6562 159.859 38.9688V21.3906L164.312 19.2812H164.547V38.9688C164.547 40.8438 165.328 41.7812 166.891 41.7812H172.281C173.844 41.7812 174.625 40.8438 174.625 38.9688V21.3906L179.078 19.2812H179.312V38.9688C179.312 43.6562 176.969 46 172.281 46H166.891ZM194.547 41.7812H199.938C201.5 41.7812 202.281 40.8438 202.281 38.9688V27.25C202.281 25.375 201.5 24.4375 199.938 24.4375H194.547C192.984 24.4375 192.203 25.375 192.203 27.25V38.9688C192.203 40.8438 192.984 41.7812 194.547 41.7812ZM194.547 46C189.859 46 187.516 43.6562 187.516 38.9688V11.7812L191.969 9.67188H192.203V20.9453C192.828 20.4609 193.609 20.2188 194.547 20.2188H199.938C204.625 20.2188 206.969 22.5625 206.969 27.25V38.9688C206.969 43.6562 204.625 46 199.938 46H194.547Z" fill="white"/>
</svg>
