<svg width="644" height="593" viewBox="0 0 644 593" fill="none" xmlns="http://www.w3.org/2000/svg">
<path d="M54.248 61.3772C88.5209 134.548 121.189 208.063 149.78 283.727C183.144 372.022 210.798 461.775 237.503 552.202" stroke="black" stroke-width="3" stroke-linecap="round"/>
<path d="M137.886 340.345C159.283 306.59 189.805 279.944 220.881 255.387" stroke="black" stroke-width="3" stroke-linecap="round"/>
<path d="M163.983 94.5237C184.691 186.255 216.665 275.336 246.902 364.24C264.206 415.118 279.892 467.201 304.039 515.362" stroke="black" stroke-width="3" stroke-linecap="round"/>
<path d="M289.14 377.004C299.209 357.225 312.047 337.679 320.06 317.054C326.951 299.319 326.218 280.614 308.371 270.598C291.979 261.398 262.839 279.085 267.93 298.923C271.802 314.009 285.345 330.923 294.304 341.915C307.033 357.533 318.425 369.693 334.196 381.757C336.579 383.58 346.359 392.274 352.067 388.284C360.922 382.095 362.078 356.302 364.235 347.929" stroke="black" stroke-width="3" stroke-linecap="round"/>
<path d="M326.748 240.739C332.082 251.707 338.696 261.949 345.551 272.023C352.157 281.732 359.192 294.08 368.12 301.945C369.213 302.908 369.834 302.321 370.317 301.151C374.068 292.074 375.94 280.808 377.271 271.306C380.437 248.701 377.401 229.758 372.126 208.108C371.786 206.712 370.181 202.725 370.882 203.98C414.768 282.583 459.787 361.184 496.411 443.52C501.893 455.845 533.078 518.364 525.171 545.029C515.904 576.281 451.675 517.465 448.265 514.527C411.913 483.212 374.107 443.768 361.276 396.276" stroke="black" stroke-width="3" stroke-linecap="round"/>
<path d="M362.988 35.3315C438.527 148.773 505.834 267.006 573.493 385.297C584.16 403.947 583.586 402.872 575.063 395.626" stroke="black" stroke-width="3" stroke-linecap="round"/>
<circle cx="595.221" cy="415.439" r="7.5" transform="rotate(6.68272 595.221 415.439)" fill="black"/>
</svg>
