<svg width="96" height="93" viewBox="0 0 96 93" fill="none" xmlns="http://www.w3.org/2000/svg">
<path d="M19.1631 8.11755C21.5411 18.7677 23.7075 29.4278 25.3023 40.2853C27.1634 52.9553 28.265 65.6924 29.229 78.4989" stroke="black" stroke-width="3" stroke-linecap="round"/>
<path d="M22.2951 47.6539C25.8932 43.5857 30.4535 40.6837 35.0281 38.0761" stroke="black" stroke-width="3" stroke-linecap="round"/>
<path d="M32.1279 15.0812C32.3005 27.9275 33.9652 40.6719 35.4154 53.353C36.2453 60.6103 36.8391 67.9932 38.6048 75.0393" stroke="black" stroke-width="3" stroke-linecap="round"/>
<path d="M40.4057 56.0341C42.2025 53.5942 44.3424 51.2487 45.9023 48.648C47.2436 46.4118 47.6487 43.8714 45.6631 42.1148C43.8395 40.5014 39.6919 42.226 39.8066 45.0181C39.8938 47.1415 41.1527 49.7308 41.9907 51.4173C43.1815 53.8135 44.2955 55.7127 45.9646 57.6984C46.2169 57.9985 47.2195 59.3935 48.046 58.9848C49.3281 58.3509 50.1601 54.8972 50.655 53.8166" stroke="black" stroke-width="3" stroke-linecap="round"/>
<path d="M48.7765 38.5038C49.1578 40.1046 49.7199 41.6366 50.3169 43.1515C50.8921 44.6113 51.4514 46.4371 52.3687 47.7009C52.481 47.8556 52.575 47.7905 52.6671 47.6436C53.3819 46.5041 53.9178 45.0267 54.3385 43.775C55.3395 40.797 55.4604 38.1723 55.3707 35.1317C55.365 34.9355 55.2685 34.3612 55.3235 34.5464C58.7701 46.1478 62.3598 57.7746 64.7906 69.7147C65.1545 71.502 67.4262 80.6448 65.7191 84.0629C63.7183 88.0688 57.1784 78.6752 56.8262 78.2014C53.0723 73.1511 49.351 66.9711 48.9954 60.2723" stroke="black" stroke-width="3" stroke-linecap="round"/>
<path d="M58.8142 11.6138C65.328 28.634 70.6757 46.1139 76.0661 63.6096C76.916 66.368 76.8722 66.2099 75.9895 65.0387" stroke="black" stroke-width="3" stroke-linecap="round"/>
<ellipse cx="78.2349" cy="71.0245" rx="1.95714" ry="2.08638" transform="rotate(17.3774 78.2349 71.0245)" fill="black"/>
</svg>
