<svg width="121" height="87" viewBox="0 0 121 87" fill="none" xmlns="http://www.w3.org/2000/svg">
<path d="M35.3534 4.0923C33.2087 6.37808 28.4087 11.3552 24.698 15.1894C13.0895 27.1714 7.26816 35.356 3.35325 45.1627C2.09367 48.3333 -0.221232 56.2598 0.0170671 56.5548C0.0851525 56.6285 1.68516 57.3659 3.52346 58.177C6.79156 59.6517 8.0171 60.389 7.20007 60.389C6.79156 60.389 7.09795 62.3061 7.71071 63.5965C8.32348 64.8131 9.78732 65.6242 17.2767 68.8685C28.9193 73.8825 39.5406 78.7859 49.9917 83.9842C55.4045 86.6387 57.5832 87.3392 58.945 86.8599C60.8854 86.0857 60.4088 83.7999 57.6854 81.1086C56.2896 79.7445 56.1535 79.4495 56.4939 78.7859C56.6981 78.3435 56.7322 77.8642 56.562 77.7167C56.4258 77.5693 54.5194 75.8365 52.3747 73.8456C50.23 71.8548 47.6768 69.4215 46.7236 68.4261L44.9534 66.5827L45.4641 64.9974C46.0768 63.0435 46.8598 62.4536 50.0598 61.5319C55.779 59.836 59.9662 59.4673 73.1408 59.4673C87.0302 59.4673 91.0132 59.7991 105.652 62.1586C110.349 62.896 115.286 63.5227 116.647 63.5227C118.962 63.5227 119.235 63.449 119.949 62.5273C120.392 61.9743 120.835 60.9051 120.971 60.0941C121.243 58.177 119.541 35.614 118.928 33.2176C118.349 31.0793 117.056 29.6784 115.047 29.0147C113.788 28.6092 113.72 28.4986 113.515 26.6921C113.413 25.6598 113.311 24.2957 113.311 23.6689V22.5261L109.498 21.5306C103.677 20.0559 97.6855 18.8762 91.3195 17.9545C86.3153 17.2171 84.0685 17.1065 74.162 17.0697C62.0088 17.0697 59.9662 17.254 49.6853 19.1342C46.4172 19.7241 43.6938 20.1297 43.5917 20.0191C43.4896 19.9085 43.5917 19.8347 43.83 19.8347C44.4768 19.8347 46.3492 15.1526 46.5194 13.1248C46.7917 9.91736 44.9194 8.92194 42.23 10.8759C40.63 12.0557 37.7704 14.9313 37.1576 16.0005C36.5449 17.0328 38.0087 13.3829 40.4598 7.88965C41.5832 5.30892 42.4683 2.98626 42.4002 2.72819C42.2981 2.50699 41.5832 1.80651 40.7321 1.14289L39.2342 -2.15869e-06L35.3534 4.0923Z" fill="black"/>
</svg>
