<svg width="100" height="83" viewBox="0 0 100 83" fill="none" xmlns="http://www.w3.org/2000/svg">
<circle cx="54" cy="25" r="25" fill="#C4C4C4"/>
<circle cx="25" cy="38" r="25" fill="#C4C4C4"/>
<circle cx="43" cy="58" r="25" fill="#C4C4C4"/>
<circle cx="73" cy="58" r="25" fill="#C4C4C4"/>
<circle cx="75" cy="41" r="25" fill="#C4C4C4"/>
<path d="M27.6875 62.9375V27.7812L32.1406 25.6719H32.375V42.1719H46.2031V27.7812L50.6562 25.6719H50.8906V60.8281L46.4375 62.9375H46.2031V46.4375H32.375V60.8281L27.9219 62.9375H27.6875ZM65.6562 62C60.1875 62 57.4531 59.2656 57.4531 53.7969V51.2188L61.9062 49.1094H62.1406V53.7969C62.1406 56.4531 63.3125 57.7812 65.6562 57.7812H72.4531C74.7969 57.7812 75.9688 56.4531 75.9688 53.7969V30.875H62.5391V30.6406L64.4375 26.6094H80.6562V53.7969C80.6562 59.2656 77.9219 62 72.4531 62H65.6562Z" fill="black"/>
</svg>
