<svg width="121" height="87" viewBox="0 0 121 87" fill="none" xmlns="http://www.w3.org/2000/svg">
<path d="M78.2502 1.14468C77.3246 1.77242 76.5414 2.40015 76.5414 2.58478C76.5414 2.73248 77.3602 4.68952 78.3214 6.90504C80.2083 11.1515 80.3151 11.5207 79.7455 11.1515C79.5319 11.0038 79.3895 11.5577 79.3895 12.5177C79.3895 13.6255 79.9235 15.2502 81.1339 17.9827C82.1307 20.1243 82.7715 21.8968 82.5935 21.9706C82.4511 22.0445 80.7423 21.6752 78.8199 21.1583C59.8092 16.1733 41.0477 15.324 20.8266 18.5366C13.8845 19.6443 3.5248 21.9706 2.99079 22.5614C2.67039 22.8568 -0.0352523 54.0588 0.000348175 57.0128C0.000348175 57.2713 0.356353 57.4929 0.81916 57.4929C1.53117 57.4929 1.63797 57.6406 1.49557 58.5637C1.42437 59.1545 1.67357 60.373 2.06518 61.2962C3.23999 64.0287 4.0588 64.1394 13.0657 62.6993C30.7948 59.9299 38.8049 59.2284 51.9771 59.2284C62.764 59.2284 68.1397 59.6715 74.1206 61.0746C75.5446 61.407 77.0754 61.6654 77.5026 61.7024C78.1434 61.7393 78.179 61.8501 77.8586 62.4778C77.2534 63.6594 71.6998 69.1613 66.4665 73.74L61.6248 77.9495L62.3368 79.2789C62.7284 79.9804 63.2624 80.8667 63.5116 81.2359C64.0456 81.9375 63.9388 81.9744 67.8193 80.2389C68.9941 79.722 69.6349 79.5004 69.2433 79.7589C67.8549 80.6451 65.6121 83.2668 65.3629 84.2638C65.1849 84.9284 65.3273 85.5562 65.7189 86.1839C66.7513 87.8456 68.4245 87.3286 81.7035 81.2359C94.3061 75.4386 102.779 71.7461 111.11 68.3859C119.618 64.9518 120.686 64.0656 120.686 60.5946C120.686 59.4499 120.544 58.2314 120.33 57.8621C120.081 57.3821 120.116 57.1605 120.508 56.9759C121.327 56.6805 121.184 55.7204 119.618 50.7724C116.485 40.8764 111.822 33.0113 103.277 23.3369C100.572 20.2721 94.4129 14.1055 84.0175 3.98795L79.9235 0L78.2502 1.14468Z" fill="black"/>
</svg>
